<?xml version="1.0" encoding="UTF-8" standalone="no"?>
<!DOCTYPE svg PUBLIC "-//W3C//DTD SVG 1.1//EN"
 "http://www.w3.org/Graphics/SVG/1.1/DTD/svg11.dtd">
<!-- Generated by graphviz version 2.43.20190912.0211 (20190912.0211)
 -->
<!-- Title: cpu Pages: 1 -->
<svg width="726pt" height="2071pt"
 viewBox="0.00 0.00 725.91 2071.00" xmlns="http://www.w3.org/2000/svg" xmlns:xlink="http://www.w3.org/1999/xlink">
<g id="graph0" class="graph" transform="scale(1 1) rotate(0) translate(4 2067)">
<title>cpu</title>
<polygon fill="white" stroke="transparent" points="-4,4 -4,-2067 721.91,-2067 721.91,4 -4,4"/>
<text text-anchor="middle" x="358.95" y="-7.8" font-family="Times,serif" font-size="14.00">cpu</text>
<!-- n1 -->
<g id="node1" class="node">
<title>n1</title>
<polygon fill="none" stroke="black" points="135.54,-33.54 135.54,-48.46 119.72,-59 97.36,-59 81.54,-48.46 81.54,-33.54 97.36,-23 119.72,-23 135.54,-33.54"/>
<text text-anchor="middle" x="108.54" y="-37.3" font-family="Times,serif" font-size="14.00">clk</text>
</g>
<!-- n2 -->
<g id="node2" class="node">
<title>n2</title>
<polygon fill="none" stroke="black" points="574.28,-87.54 574.28,-102.46 551.27,-113 518.72,-113 495.7,-102.46 495.7,-87.54 518.72,-77 551.27,-77 574.28,-87.54"/>
<text text-anchor="middle" x="534.99" y="-91.3" font-family="Times,serif" font-size="14.00">dbg_pc</text>
</g>
<!-- n3 -->
<g id="node3" class="node">
<title>n3</title>
<polygon fill="none" stroke="black" points="534.99,-167 421.04,-149 534.99,-131 648.94,-149 534.99,-167"/>
<text text-anchor="middle" x="534.99" y="-145.3" font-family="Times,serif" font-size="14.00">ex_mem_is_branch</text>
</g>
<!-- n4 -->
<g id="node4" class="node">
<title>n4</title>
<polygon fill="none" stroke="black" points="534.99,-221 421.88,-203 534.99,-185 648.11,-203 534.99,-221"/>
<text text-anchor="middle" x="534.99" y="-199.3" font-family="Times,serif" font-size="14.00">ex_mem_memread</text>
</g>
<!-- n5 -->
<g id="node5" class="node">
<title>n5</title>
<polygon fill="none" stroke="black" points="534.99,-275 417.19,-257 534.99,-239 652.8,-257 534.99,-275"/>
<text text-anchor="middle" x="534.99" y="-253.3" font-family="Times,serif" font-size="14.00">ex_mem_memwrite</text>
</g>
<!-- n6 -->
<g id="node6" class="node">
<title>n6</title>
<polygon fill="none" stroke="black" points="534.99,-329 458.91,-311 534.99,-293 611.07,-311 534.99,-329"/>
<text text-anchor="middle" x="534.99" y="-307.3" font-family="Times,serif" font-size="14.00">ex_mem_rd</text>
</g>
<!-- n7 -->
<g id="node7" class="node">
<title>n7</title>
<polygon fill="none" stroke="black" points="534.99,-383 507.99,-365 534.99,-347 561.99,-365 534.99,-383"/>
<text text-anchor="middle" x="534.99" y="-361.3" font-family="Times,serif" font-size="14.00">i</text>
</g>
<!-- n8 -->
<g id="node8" class="node">
<title>n8</title>
<polygon fill="none" stroke="black" points="534.99,-437 467.8,-419 534.99,-401 602.19,-419 534.99,-437"/>
<text text-anchor="middle" x="534.99" y="-415.3" font-family="Times,serif" font-size="14.00">id_alu_src</text>
</g>
<!-- n9 -->
<g id="node9" class="node">
<title>n9</title>
<polygon fill="none" stroke="black" points="534.99,-491 461.43,-473 534.99,-455 608.56,-473 534.99,-491"/>
<text text-anchor="middle" x="534.99" y="-469.3" font-family="Times,serif" font-size="14.00">id_ex_imm</text>
</g>
<!-- n10 -->
<g id="node10" class="node">
<title>n10</title>
<polygon fill="none" stroke="black" points="534.99,-545 438.47,-527 534.99,-509 631.52,-527 534.99,-545"/>
<text text-anchor="middle" x="534.99" y="-523.3" font-family="Times,serif" font-size="14.00">id_ex_memread</text>
</g>
<!-- n11 -->
<g id="node11" class="node">
<title>n11</title>
<polygon fill="none" stroke="black" points="534.99,-599 433.78,-581 534.99,-563 636.21,-581 534.99,-599"/>
<text text-anchor="middle" x="534.99" y="-577.3" font-family="Times,serif" font-size="14.00">id_ex_memwrite</text>
</g>
<!-- n12 -->
<g id="node12" class="node">
<title>n12</title>
<polygon fill="none" stroke="black" points="534.99,-653 450.37,-635 534.99,-617 619.62,-635 534.99,-653"/>
<text text-anchor="middle" x="534.99" y="-631.3" font-family="Times,serif" font-size="14.00">id_ex_opcode</text>
</g>
<!-- n13 -->
<g id="node13" class="node">
<title>n13</title>
<polygon fill="none" stroke="black" points="534.99,-713 475,-695 534.99,-677 594.98,-695 534.99,-713"/>
<text text-anchor="middle" x="534.99" y="-691.3" font-family="Times,serif" font-size="14.00">id_ex_rd</text>
</g>
<!-- n14 -->
<g id="node14" class="node">
<title>n14</title>
<polygon fill="none" stroke="black" points="534.99,-767 472.49,-749 534.99,-731 597.5,-749 534.99,-767"/>
<text text-anchor="middle" x="534.99" y="-745.3" font-family="Times,serif" font-size="14.00">id_funct3</text>
</g>
<!-- n15 -->
<g id="node15" class="node">
<title>n15</title>
<polygon fill="none" stroke="black" points="534.99,-821 472.49,-803 534.99,-785 597.5,-803 534.99,-821"/>
<text text-anchor="middle" x="534.99" y="-799.3" font-family="Times,serif" font-size="14.00">id_funct7</text>
</g>
<!-- n16 -->
<g id="node16" class="node">
<title>n16</title>
<polygon fill="none" stroke="black" points="534.99,-875 455.9,-857 534.99,-839 614.09,-857 534.99,-875"/>
<text text-anchor="middle" x="534.99" y="-853.3" font-family="Times,serif" font-size="14.00">id_memread</text>
</g>
<!-- n17 -->
<g id="node17" class="node">
<title>n17</title>
<polygon fill="none" stroke="black" points="534.99,-929 451.21,-911 534.99,-893 618.78,-911 534.99,-929"/>
<text text-anchor="middle" x="534.99" y="-907.3" font-family="Times,serif" font-size="14.00">id_memwrite</text>
</g>
<!-- n18 -->
<g id="node18" class="node">
<title>n18</title>
<polygon fill="none" stroke="black" points="534.99,-983 467.8,-965 534.99,-947 602.19,-965 534.99,-983"/>
<text text-anchor="middle" x="534.99" y="-961.3" font-family="Times,serif" font-size="14.00">id_opcode</text>
</g>
<!-- n19 -->
<g id="node19" class="node">
<title>n19</title>
<polygon fill="none" stroke="black" points="534.99,-1037 493.77,-1019 534.99,-1001 576.22,-1019 534.99,-1037"/>
<text text-anchor="middle" x="534.99" y="-1015.3" font-family="Times,serif" font-size="14.00">id_rd</text>
</g>
<!-- n20 -->
<g id="node20" class="node">
<title>n20</title>
<polygon fill="none" stroke="black" points="534.99,-1091 461.43,-1073 534.99,-1055 608.56,-1073 534.99,-1091"/>
<text text-anchor="middle" x="534.99" y="-1069.3" font-family="Times,serif" font-size="14.00">id_regwrite</text>
</g>
<!-- n21 -->
<g id="node21" class="node">
<title>n21</title>
<polygon fill="none" stroke="black" points="534.99,-1145 489.08,-1127 534.99,-1109 580.91,-1127 534.99,-1145"/>
<text text-anchor="middle" x="534.99" y="-1123.3" font-family="Times,serif" font-size="14.00">id_rs1</text>
</g>
<!-- n22 -->
<g id="node22" class="node">
<title>n22</title>
<polygon fill="none" stroke="black" points="534.99,-1199 489.08,-1181 534.99,-1163 580.91,-1181 534.99,-1199"/>
<text text-anchor="middle" x="534.99" y="-1177.3" font-family="Times,serif" font-size="14.00">id_rs2</text>
</g>
<!-- n23 -->
<g id="node23" class="node">
<title>n23</title>
<polygon fill="none" stroke="black" points="534.99,-1253 467.8,-1235 534.99,-1217 602.19,-1235 534.99,-1253"/>
<text text-anchor="middle" x="534.99" y="-1231.3" font-family="Times,serif" font-size="14.00">if_id_instr</text>
</g>
<!-- n24 -->
<g id="node24" class="node">
<title>n24</title>
<polygon fill="none" stroke="black" points="534.99,-1307 483.55,-1289 534.99,-1271 586.44,-1289 534.99,-1307"/>
<text text-anchor="middle" x="534.99" y="-1285.3" font-family="Times,serif" font-size="14.00">imm_b</text>
</g>
<!-- n25 -->
<g id="node25" class="node">
<title>n25</title>
<polygon fill="none" stroke="black" points="534.99,-1361 455.06,-1343 534.99,-1325 614.93,-1343 534.99,-1361"/>
<text text-anchor="middle" x="534.99" y="-1339.3" font-family="Times,serif" font-size="14.00">imm_b_field</text>
</g>
<!-- n26 -->
<g id="node26" class="node">
<title>n26</title>
<polygon fill="none" stroke="black" points="534.99,-1415 486.06,-1397 534.99,-1379 583.92,-1397 534.99,-1415"/>
<text text-anchor="middle" x="534.99" y="-1393.3" font-family="Times,serif" font-size="14.00">imm_i</text>
</g>
<!-- n27 -->
<g id="node27" class="node">
<title>n27</title>
<polygon fill="none" stroke="black" points="534.99,-1469 457.57,-1451 534.99,-1433 612.41,-1451 534.99,-1469"/>
<text text-anchor="middle" x="534.99" y="-1447.3" font-family="Times,serif" font-size="14.00">imm_i_field</text>
</g>
<!-- n28 -->
<g id="node28" class="node">
<title>n28</title>
<polygon fill="none" stroke="black" points="534.99,-1523 486.06,-1505 534.99,-1487 583.92,-1505 534.99,-1523"/>
<text text-anchor="middle" x="534.99" y="-1501.3" font-family="Times,serif" font-size="14.00">imm_j</text>
</g>
<!-- n29 -->
<g id="node29" class="node">
<title>n29</title>
<polygon fill="none" stroke="black" points="534.99,-1577 457.57,-1559 534.99,-1541 612.41,-1559 534.99,-1577"/>
<text text-anchor="middle" x="534.99" y="-1555.3" font-family="Times,serif" font-size="14.00">imm_j_field</text>
</g>
<!-- n30 -->
<g id="node30" class="node">
<title>n30</title>
<polygon fill="none" stroke="black" points="534.99,-1631 484.39,-1613 534.99,-1595 585.6,-1613 534.99,-1631"/>
<text text-anchor="middle" x="534.99" y="-1609.3" font-family="Times,serif" font-size="14.00">imm_s</text>
</g>
<!-- n31 -->
<g id="node31" class="node">
<title>n31</title>
<polygon fill="none" stroke="black" points="534.99,-1685 455.9,-1667 534.99,-1649 614.09,-1667 534.99,-1685"/>
<text text-anchor="middle" x="534.99" y="-1663.3" font-family="Times,serif" font-size="14.00">imm_s_field</text>
</g>
<!-- n32 -->
<g id="node32" class="node">
<title>n32</title>
<polygon fill="none" stroke="black" points="534.99,-1739 497.12,-1721 534.99,-1703 572.86,-1721 534.99,-1739"/>
<text text-anchor="middle" x="534.99" y="-1717.3" font-family="Times,serif" font-size="14.00">instr</text>
</g>
<!-- n33 -->
<g id="node33" class="node">
<title>n33</title>
<polygon fill="none" stroke="black" points="534.99,-1793 507.99,-1775 534.99,-1757 561.99,-1775 534.99,-1793"/>
<text text-anchor="middle" x="534.99" y="-1771.3" font-family="Times,serif" font-size="14.00">pc</text>
</g>
<!-- n34 -->
<g id="node34" class="node">
<title>n34</title>
<polygon fill="none" stroke="black" points="138.13,-1821.54 138.13,-1836.46 120.8,-1847 96.28,-1847 78.95,-1836.46 78.95,-1821.54 96.28,-1811 120.8,-1811 138.13,-1821.54"/>
<text text-anchor="middle" x="108.54" y="-1825.3" font-family="Times,serif" font-size="14.00">reset</text>
</g>
<!-- n35 -->
<g id="node35" class="node">
<title>n35</title>
<polygon fill="none" stroke="black" points="534.99,-1901 358.54,-1883 534.99,-1865 711.45,-1883 534.99,-1901"/>
<text text-anchor="middle" x="534.99" y="-1879.3" font-family="Times,serif" font-size="14.00">sext12$func$design.sv:170$8.in</text>
</g>
<!-- n36 -->
<g id="node36" class="node">
<title>n36</title>
<polygon fill="none" stroke="black" points="534.99,-1955 358.54,-1937 534.99,-1919 711.45,-1937 534.99,-1955"/>
<text text-anchor="middle" x="534.99" y="-1933.3" font-family="Times,serif" font-size="14.00">sext12$func$design.sv:171$9.in</text>
</g>
<!-- n37 -->
<g id="node37" class="node">
<title>n37</title>
<polygon fill="none" stroke="black" points="534.99,-2009 352.17,-1991 534.99,-1973 717.82,-1991 534.99,-2009"/>
<text text-anchor="middle" x="534.99" y="-1987.3" font-family="Times,serif" font-size="14.00">sext13$func$design.sv:172$10.in</text>
</g>
<!-- n38 -->
<g id="node38" class="node">
<title>n38</title>
<polygon fill="none" stroke="black" points="534.99,-2063 352.17,-2045 534.99,-2027 717.82,-2045 534.99,-2063"/>
<text text-anchor="middle" x="534.99" y="-2041.3" font-family="Times,serif" font-size="14.00">sext20$func$design.sv:173$11.in</text>
</g>
<!-- v0 -->
<g id="node39" class="node">
<title>v0</title>
<ellipse fill="none" stroke="black" cx="108.54" cy="-95" rx="27" ry="18"/>
<text text-anchor="middle" x="108.54" y="-91.3" font-family="Times,serif" font-size="14.00">0</text>
</g>
<!-- x1 -->
<g id="node40" class="node">
<title>x1</title>
<ellipse fill="black" stroke="black" cx="284.58" cy="-95" rx="1.8" ry="1.8"/>
</g>
<!-- v0&#45;&gt;x1 -->
<g id="edge38" class="edge">
<title>v0:e&#45;&gt;x1:w</title>
<path fill="none" stroke="black" stroke-width="3" d="M136.54,-95C197.48,-95 215.21,-95 271.42,-95"/>
<polygon fill="black" stroke="black" stroke-width="3" points="271.58,-98.5 281.58,-95 271.58,-91.5 271.58,-98.5"/>
</g>
<!-- x1&#45;&gt;n2 -->
<g id="edge12" class="edge">
<title>x1:e&#45;&gt;n2:w</title>
<path fill="none" stroke="black" stroke-width="3" d="M287.58,-95C376.25,-95 400.95,-95 484.75,-95"/>
<polygon fill="black" stroke="black" stroke-width="3" points="484.99,-98.5 494.99,-95 484.99,-91.5 484.99,-98.5"/>
</g>
<!-- v2 -->
<g id="node41" class="node">
<title>v2</title>
<ellipse fill="none" stroke="black" cx="108.54" cy="-149" rx="27" ry="18"/>
<text text-anchor="middle" x="108.54" y="-145.3" font-family="Times,serif" font-size="14.00">1&#39;0</text>
</g>
<!-- x3 -->
<g id="node42" class="node">
<title>x3</title>
<ellipse fill="black" stroke="black" cx="284.58" cy="-149" rx="1.8" ry="1.8"/>
</g>
<!-- v2&#45;&gt;x3 -->
<g id="edge44" class="edge">
<title>v2:e&#45;&gt;x3:w</title>
<path fill="none" stroke="black" d="M136.54,-149C197.48,-149 215.21,-149 271.42,-149"/>
<polygon fill="black" stroke="black" points="271.58,-152.5 281.58,-149 271.58,-145.5 271.58,-152.5"/>
</g>
<!-- x3&#45;&gt;n3 -->
<g id="edge23" class="edge">
<title>x3:e&#45;&gt;n3:w</title>
<path fill="none" stroke="black" d="M287.58,-149C342.87,-149 359.2,-149 409.77,-149"/>
<polygon fill="black" stroke="black" points="409.99,-152.5 419.99,-149 409.99,-145.5 409.99,-152.5"/>
</g>
<!-- v4 -->
<g id="node43" class="node">
<title>v4</title>
<ellipse fill="none" stroke="black" cx="108.54" cy="-203" rx="27" ry="18"/>
<text text-anchor="middle" x="108.54" y="-199.3" font-family="Times,serif" font-size="14.00">1&#39;0</text>
</g>
<!-- x5 -->
<g id="node44" class="node">
<title>x5</title>
<ellipse fill="black" stroke="black" cx="284.58" cy="-203" rx="1.8" ry="1.8"/>
</g>
<!-- v4&#45;&gt;x5 -->
<g id="edge55" class="edge">
<title>v4:e&#45;&gt;x5:w</title>
<path fill="none" stroke="black" d="M136.54,-203C197.48,-203 215.21,-203 271.42,-203"/>
<polygon fill="black" stroke="black" points="271.58,-206.5 281.58,-203 271.58,-199.5 271.58,-206.5"/>
</g>
<!-- x5&#45;&gt;n4 -->
<g id="edge32" class="edge">
<title>x5:e&#45;&gt;n4:w</title>
<path fill="none" stroke="black" d="M287.58,-203C343.29,-203 359.74,-203 410.69,-203"/>
<polygon fill="black" stroke="black" points="410.99,-206.5 420.99,-203 410.99,-199.5 410.99,-206.5"/>
</g>
<!-- v6 -->
<g id="node45" class="node">
<title>v6</title>
<ellipse fill="none" stroke="black" cx="108.54" cy="-257" rx="27" ry="18"/>
<text text-anchor="middle" x="108.54" y="-253.3" font-family="Times,serif" font-size="14.00">1&#39;0</text>
</g>
<!-- x7 -->
<g id="node46" class="node">
<title>x7</title>
<ellipse fill="black" stroke="black" cx="284.58" cy="-257" rx="1.8" ry="1.8"/>
</g>
<!-- v6&#45;&gt;x7 -->
<g id="edge66" class="edge">
<title>v6:e&#45;&gt;x7:w</title>
<path fill="none" stroke="black" d="M136.54,-257C197.48,-257 215.21,-257 271.42,-257"/>
<polygon fill="black" stroke="black" points="271.58,-260.5 281.58,-257 271.58,-253.5 271.58,-260.5"/>
</g>
<!-- x7&#45;&gt;n5 -->
<g id="edge33" class="edge">
<title>x7:e&#45;&gt;n5:w</title>
<path fill="none" stroke="black" d="M287.58,-257C341.09,-257 356.97,-257 405.77,-257"/>
<polygon fill="black" stroke="black" points="405.99,-260.5 415.99,-257 405.99,-253.5 405.99,-260.5"/>
</g>
<!-- v8 -->
<g id="node47" class="node">
<title>v8</title>
<ellipse fill="none" stroke="black" cx="108.54" cy="-311" rx="38.19" ry="18"/>
<text text-anchor="middle" x="108.54" y="-307.3" font-family="Times,serif" font-size="14.00">5&#39;00000</text>
</g>
<!-- x9 -->
<g id="node48" class="node">
<title>x9</title>
<ellipse fill="black" stroke="black" cx="284.58" cy="-311" rx="1.8" ry="1.8"/>
</g>
<!-- v8&#45;&gt;x9 -->
<g id="edge73" class="edge">
<title>v8:e&#45;&gt;x9:w</title>
<path fill="none" stroke="black" stroke-width="3" d="M148.54,-311C204.09,-311 220.5,-311 271.31,-311"/>
<polygon fill="black" stroke="black" stroke-width="3" points="271.58,-314.5 281.58,-311 271.58,-307.5 271.58,-314.5"/>
</g>
<!-- x9&#45;&gt;n6 -->
<g id="edge34" class="edge">
<title>x9:e&#45;&gt;n6:w</title>
<path fill="none" stroke="black" stroke-width="3" d="M287.58,-311C359.77,-311 380.35,-311 447.71,-311"/>
<polygon fill="black" stroke="black" stroke-width="3" points="447.99,-314.5 457.99,-311 447.99,-307.5 447.99,-314.5"/>
</g>
<!-- v10 -->
<g id="node49" class="node">
<title>v10</title>
<ellipse fill="none" stroke="black" cx="108.54" cy="-365" rx="28.7" ry="18"/>
<text text-anchor="middle" x="108.54" y="-361.3" font-family="Times,serif" font-size="14.00">1024</text>
</g>
<!-- x11 -->
<g id="node50" class="node">
<title>x11</title>
<ellipse fill="black" stroke="black" cx="284.58" cy="-365" rx="1.8" ry="1.8"/>
</g>
<!-- v10&#45;&gt;x11 -->
<g id="edge39" class="edge">
<title>v10:e&#45;&gt;x11:w</title>
<path fill="none" stroke="black" stroke-width="3" d="M138.54,-365C198.64,-365 216.13,-365 271.56,-365"/>
<polygon fill="black" stroke="black" stroke-width="3" points="271.58,-368.5 281.58,-365 271.58,-361.5 271.58,-368.5"/>
</g>
<!-- x11&#45;&gt;n7 -->
<g id="edge35" class="edge">
<title>x11:e&#45;&gt;n7:w</title>
<path fill="none" stroke="black" stroke-width="3" d="M287.58,-365C381.67,-365 407.67,-365 496.97,-365"/>
<polygon fill="black" stroke="black" stroke-width="3" points="496.99,-368.5 506.99,-365 496.99,-361.5 496.99,-368.5"/>
</g>
<!-- v12 -->
<g id="node51" class="node">
<title>v12</title>
<ellipse fill="none" stroke="black" cx="108.54" cy="-419" rx="27" ry="18"/>
<text text-anchor="middle" x="108.54" y="-415.3" font-family="Times,serif" font-size="14.00">1&#39;1</text>
</g>
<!-- x13 -->
<g id="node52" class="node">
<title>x13</title>
<ellipse fill="black" stroke="black" cx="284.58" cy="-419" rx="1.8" ry="1.8"/>
</g>
<!-- v12&#45;&gt;x13 -->
<g id="edge40" class="edge">
<title>v12:e&#45;&gt;x13:w</title>
<path fill="none" stroke="black" d="M136.54,-419C197.48,-419 215.21,-419 271.42,-419"/>
<polygon fill="black" stroke="black" points="271.58,-422.5 281.58,-419 271.58,-415.5 271.58,-422.5"/>
</g>
<!-- x13&#45;&gt;n8 -->
<g id="edge36" class="edge">
<title>x13:e&#45;&gt;n8:w</title>
<path fill="none" stroke="black" d="M287.58,-419C363.74,-419 385.34,-419 456.6,-419"/>
<polygon fill="black" stroke="black" points="456.99,-422.5 466.99,-419 456.99,-415.5 456.99,-422.5"/>
</g>
<!-- v14 -->
<g id="node53" class="node">
<title>v14</title>
<ellipse fill="none" stroke="black" cx="108.54" cy="-473" rx="27" ry="18"/>
<text text-anchor="middle" x="108.54" y="-469.3" font-family="Times,serif" font-size="14.00">0</text>
</g>
<!-- x15 -->
<g id="node54" class="node">
<title>x15</title>
<ellipse fill="black" stroke="black" cx="284.58" cy="-473" rx="1.8" ry="1.8"/>
</g>
<!-- v14&#45;&gt;x15 -->
<g id="edge41" class="edge">
<title>v14:e&#45;&gt;x15:w</title>
<path fill="none" stroke="black" stroke-width="3" d="M136.54,-473C197.48,-473 215.21,-473 271.42,-473"/>
<polygon fill="black" stroke="black" stroke-width="3" points="271.58,-476.5 281.58,-473 271.58,-469.5 271.58,-476.5"/>
</g>
<!-- x15&#45;&gt;n9 -->
<g id="edge37" class="edge">
<title>x15:e&#45;&gt;n9:w</title>
<path fill="none" stroke="black" stroke-width="3" d="M287.58,-473C360.62,-473 381.44,-473 449.58,-473"/>
<polygon fill="black" stroke="black" stroke-width="3" points="449.99,-476.5 459.99,-473 449.99,-469.5 449.99,-476.5"/>
</g>
<!-- v16 -->
<g id="node55" class="node">
<title>v16</title>
<ellipse fill="none" stroke="black" cx="108.54" cy="-527" rx="27" ry="18"/>
<text text-anchor="middle" x="108.54" y="-523.3" font-family="Times,serif" font-size="14.00">1&#39;0</text>
</g>
<!-- x17 -->
<g id="node56" class="node">
<title>x17</title>
<ellipse fill="black" stroke="black" cx="284.58" cy="-527" rx="1.8" ry="1.8"/>
</g>
<!-- v16&#45;&gt;x17 -->
<g id="edge42" class="edge">
<title>v16:e&#45;&gt;x17:w</title>
<path fill="none" stroke="black" d="M136.54,-527C197.48,-527 215.21,-527 271.42,-527"/>
<polygon fill="black" stroke="black" points="271.58,-530.5 281.58,-527 271.58,-523.5 271.58,-530.5"/>
</g>
<!-- x17&#45;&gt;n10 -->
<g id="edge1" class="edge">
<title>x17:e&#45;&gt;n10:w</title>
<path fill="none" stroke="black" d="M287.58,-527C350.48,-527 368.7,-527 426.89,-527"/>
<polygon fill="black" stroke="black" points="426.99,-530.5 436.99,-527 426.99,-523.5 426.99,-530.5"/>
</g>
<!-- v18 -->
<g id="node57" class="node">
<title>v18</title>
<ellipse fill="none" stroke="black" cx="108.54" cy="-581" rx="27" ry="18"/>
<text text-anchor="middle" x="108.54" y="-577.3" font-family="Times,serif" font-size="14.00">1&#39;0</text>
</g>
<!-- x19 -->
<g id="node58" class="node">
<title>x19</title>
<ellipse fill="black" stroke="black" cx="284.58" cy="-581" rx="1.8" ry="1.8"/>
</g>
<!-- v18&#45;&gt;x19 -->
<g id="edge43" class="edge">
<title>v18:e&#45;&gt;x19:w</title>
<path fill="none" stroke="black" d="M136.54,-581C197.48,-581 215.21,-581 271.42,-581"/>
<polygon fill="black" stroke="black" points="271.58,-584.5 281.58,-581 271.58,-577.5 271.58,-584.5"/>
</g>
<!-- x19&#45;&gt;n11 -->
<g id="edge2" class="edge">
<title>x19:e&#45;&gt;n11:w</title>
<path fill="none" stroke="black" d="M287.58,-581C348.67,-581 366.45,-581 422.81,-581"/>
<polygon fill="black" stroke="black" points="422.99,-584.5 432.99,-581 422.99,-577.5 422.99,-584.5"/>
</g>
<!-- v20 -->
<g id="node59" class="node">
<title>v20</title>
<ellipse fill="none" stroke="black" cx="108.54" cy="-638" rx="34.39" ry="18"/>
<text text-anchor="middle" x="108.54" y="-634.3" font-family="Times,serif" font-size="14.00">4&#39;0000</text>
</g>
<!-- x21 -->
<g id="node60" class="node">
<title>x21</title>
<path fill="none" stroke="black" d="M265.08,-615C265.08,-615 304.08,-615 304.08,-615 310.08,-615 316.08,-621 316.08,-627 316.08,-627 316.08,-649 316.08,-649 316.08,-655 310.08,-661 304.08,-661 304.08,-661 265.08,-661 265.08,-661 259.08,-661 253.08,-655 253.08,-649 253.08,-649 253.08,-627 253.08,-627 253.08,-621 259.08,-615 265.08,-615"/>
<text text-anchor="middle" x="284.58" y="-645.8" font-family="Times,serif" font-size="14.00">3:2 &#45; 6:5</text>
<polyline fill="none" stroke="black" points="253.08,-638 316.08,-638 "/>
<text text-anchor="middle" x="284.58" y="-622.8" font-family="Times,serif" font-size="14.00">1:0 &#45; 3:2</text>
</g>
<!-- v20&#45;&gt;x21 -->
<g id="edge45" class="edge">
<title>v20:e&#45;&gt;x21:w</title>
<path fill="none" stroke="black" stroke-width="3" d="M144.54,-638C189.2,-638 202.85,-638 242.91,-638"/>
<polygon fill="black" stroke="black" stroke-width="3" points="243.08,-641.5 253.08,-638 243.08,-634.5 243.08,-641.5"/>
</g>
<!-- x21&#45;&gt;n12 -->
<g id="edge3" class="edge">
<title>x21:e&#45;&gt;n12:w</title>
<path fill="none" stroke="black" stroke-width="3" d="M316.08,-626C371.7,-626 387.87,-633.94 438.71,-634.91"/>
<polygon fill="black" stroke="black" stroke-width="3" points="438.96,-638.41 448.99,-635 439.03,-631.41 438.96,-638.41"/>
</g>
<!-- x21&#45;&gt;n12 -->
<g id="edge4" class="edge">
<title>x21:e&#45;&gt;n12:w</title>
<path fill="none" stroke="black" stroke-width="3" d="M316.08,-650C372.04,-650 387.75,-636.71 438.99,-635.15"/>
<polygon fill="black" stroke="black" stroke-width="3" points="439.05,-638.65 448.99,-635 438.94,-631.65 439.05,-638.65"/>
</g>
<!-- v22 -->
<g id="node61" class="node">
<title>v22</title>
<ellipse fill="none" stroke="black" cx="108.54" cy="-695" rx="38.19" ry="18"/>
<text text-anchor="middle" x="108.54" y="-691.3" font-family="Times,serif" font-size="14.00">5&#39;00000</text>
</g>
<!-- x23 -->
<g id="node62" class="node">
<title>x23</title>
<ellipse fill="black" stroke="black" cx="284.58" cy="-695" rx="1.8" ry="1.8"/>
</g>
<!-- v22&#45;&gt;x23 -->
<g id="edge46" class="edge">
<title>v22:e&#45;&gt;x23:w</title>
<path fill="none" stroke="black" stroke-width="3" d="M148.54,-695C204.09,-695 220.5,-695 271.31,-695"/>
<polygon fill="black" stroke="black" stroke-width="3" points="271.58,-698.5 281.58,-695 271.58,-691.5 271.58,-698.5"/>
</g>
<!-- x23&#45;&gt;n13 -->
<g id="edge5" class="edge">
<title>x23:e&#45;&gt;n13:w</title>
<path fill="none" stroke="black" stroke-width="3" d="M287.58,-695C366.87,-695 389.25,-695 463.65,-695"/>
<polygon fill="black" stroke="black" stroke-width="3" points="463.99,-698.5 473.99,-695 463.99,-691.5 463.99,-698.5"/>
</g>
<!-- v24 -->
<g id="node63" class="node">
<title>v24</title>
<ellipse fill="none" stroke="black" cx="108.54" cy="-749" rx="29.8" ry="18"/>
<text text-anchor="middle" x="108.54" y="-745.3" font-family="Times,serif" font-size="14.00">3&#39;000</text>
</g>
<!-- x25 -->
<g id="node64" class="node">
<title>x25</title>
<ellipse fill="black" stroke="black" cx="284.58" cy="-749" rx="1.8" ry="1.8"/>
</g>
<!-- v24&#45;&gt;x25 -->
<g id="edge47" class="edge">
<title>v24:e&#45;&gt;x25:w</title>
<path fill="none" stroke="black" stroke-width="3" d="M139.54,-749C199.09,-749 216.51,-749 271.29,-749"/>
<polygon fill="black" stroke="black" stroke-width="3" points="271.58,-752.5 281.58,-749 271.58,-745.5 271.58,-752.5"/>
</g>
<!-- x25&#45;&gt;n14 -->
<g id="edge6" class="edge">
<title>x25:e&#45;&gt;n14:w</title>
<path fill="none" stroke="black" stroke-width="3" d="M287.58,-749C365.59,-749 387.61,-749 460.81,-749"/>
<polygon fill="black" stroke="black" stroke-width="3" points="460.99,-752.5 470.99,-749 460.99,-745.5 460.99,-752.5"/>
</g>
<!-- v26 -->
<g id="node65" class="node">
<title>v26</title>
<ellipse fill="none" stroke="black" cx="108.54" cy="-803" rx="47.39" ry="18"/>
<text text-anchor="middle" x="108.54" y="-799.3" font-family="Times,serif" font-size="14.00">7&#39;0000000</text>
</g>
<!-- x27 -->
<g id="node66" class="node">
<title>x27</title>
<ellipse fill="black" stroke="black" cx="284.58" cy="-803" rx="1.8" ry="1.8"/>
</g>
<!-- v26&#45;&gt;x27 -->
<g id="edge48" class="edge">
<title>v26:e&#45;&gt;x27:w</title>
<path fill="none" stroke="black" stroke-width="3" d="M157.54,-803C209.12,-803 224.5,-803 271.41,-803"/>
<polygon fill="black" stroke="black" stroke-width="3" points="271.58,-806.5 281.58,-803 271.58,-799.5 271.58,-806.5"/>
</g>
<!-- x27&#45;&gt;n15 -->
<g id="edge7" class="edge">
<title>x27:e&#45;&gt;n15:w</title>
<path fill="none" stroke="black" stroke-width="3" d="M287.58,-803C365.59,-803 387.61,-803 460.81,-803"/>
<polygon fill="black" stroke="black" stroke-width="3" points="460.99,-806.5 470.99,-803 460.99,-799.5 460.99,-806.5"/>
</g>
<!-- v28 -->
<g id="node67" class="node">
<title>v28</title>
<ellipse fill="none" stroke="black" cx="108.54" cy="-857" rx="27" ry="18"/>
<text text-anchor="middle" x="108.54" y="-853.3" font-family="Times,serif" font-size="14.00">1&#39;0</text>
</g>
<!-- x29 -->
<g id="node68" class="node">
<title>x29</title>
<ellipse fill="black" stroke="black" cx="284.58" cy="-857" rx="1.8" ry="1.8"/>
</g>
<!-- v28&#45;&gt;x29 -->
<g id="edge49" class="edge">
<title>v28:e&#45;&gt;x29:w</title>
<path fill="none" stroke="black" d="M136.54,-857C197.48,-857 215.21,-857 271.42,-857"/>
<polygon fill="black" stroke="black" points="271.58,-860.5 281.58,-857 271.58,-853.5 271.58,-860.5"/>
</g>
<!-- x29&#45;&gt;n16 -->
<g id="edge8" class="edge">
<title>x29:e&#45;&gt;n16:w</title>
<path fill="none" stroke="black" d="M287.58,-857C358.5,-857 378.72,-857 444.89,-857"/>
<polygon fill="black" stroke="black" points="444.99,-860.5 454.99,-857 444.99,-853.5 444.99,-860.5"/>
</g>
<!-- v30 -->
<g id="node69" class="node">
<title>v30</title>
<ellipse fill="none" stroke="black" cx="108.54" cy="-911" rx="27" ry="18"/>
<text text-anchor="middle" x="108.54" y="-907.3" font-family="Times,serif" font-size="14.00">1&#39;0</text>
</g>
<!-- x31 -->
<g id="node70" class="node">
<title>x31</title>
<ellipse fill="black" stroke="black" cx="284.58" cy="-911" rx="1.8" ry="1.8"/>
</g>
<!-- v30&#45;&gt;x31 -->
<g id="edge50" class="edge">
<title>v30:e&#45;&gt;x31:w</title>
<path fill="none" stroke="black" d="M136.54,-911C197.48,-911 215.21,-911 271.42,-911"/>
<polygon fill="black" stroke="black" points="271.58,-914.5 281.58,-911 271.58,-907.5 271.58,-914.5"/>
</g>
<!-- x31&#45;&gt;n17 -->
<g id="edge9" class="edge">
<title>x31:e&#45;&gt;n17:w</title>
<path fill="none" stroke="black" d="M287.58,-911C356.24,-911 375.92,-911 439.79,-911"/>
<polygon fill="black" stroke="black" points="439.99,-914.5 449.99,-911 439.99,-907.5 439.99,-914.5"/>
</g>
<!-- v32 -->
<g id="node71" class="node">
<title>v32</title>
<ellipse fill="none" stroke="black" cx="108.54" cy="-965" rx="47.39" ry="18"/>
<text text-anchor="middle" x="108.54" y="-961.3" font-family="Times,serif" font-size="14.00">7&#39;0010011</text>
</g>
<!-- x33 -->
<g id="node72" class="node">
<title>x33</title>
<ellipse fill="black" stroke="black" cx="284.58" cy="-965" rx="1.8" ry="1.8"/>
</g>
<!-- v32&#45;&gt;x33 -->
<g id="edge51" class="edge">
<title>v32:e&#45;&gt;x33:w</title>
<path fill="none" stroke="black" stroke-width="3" d="M157.54,-965C209.12,-965 224.5,-965 271.41,-965"/>
<polygon fill="black" stroke="black" stroke-width="3" points="271.58,-968.5 281.58,-965 271.58,-961.5 271.58,-968.5"/>
</g>
<!-- x33&#45;&gt;n18 -->
<g id="edge10" class="edge">
<title>x33:e&#45;&gt;n18:w</title>
<path fill="none" stroke="black" stroke-width="3" d="M287.58,-965C363.74,-965 385.34,-965 456.6,-965"/>
<polygon fill="black" stroke="black" stroke-width="3" points="456.99,-968.5 466.99,-965 456.99,-961.5 456.99,-968.5"/>
</g>
<!-- v34 -->
<g id="node73" class="node">
<title>v34</title>
<ellipse fill="none" stroke="black" cx="108.54" cy="-1019" rx="38.19" ry="18"/>
<text text-anchor="middle" x="108.54" y="-1015.3" font-family="Times,serif" font-size="14.00">5&#39;00000</text>
</g>
<!-- x35 -->
<g id="node74" class="node">
<title>x35</title>
<ellipse fill="black" stroke="black" cx="284.58" cy="-1019" rx="1.8" ry="1.8"/>
</g>
<!-- v34&#45;&gt;x35 -->
<g id="edge52" class="edge">
<title>v34:e&#45;&gt;x35:w</title>
<path fill="none" stroke="black" stroke-width="3" d="M148.54,-1019C204.09,-1019 220.5,-1019 271.31,-1019"/>
<polygon fill="black" stroke="black" stroke-width="3" points="271.58,-1022.5 281.58,-1019 271.58,-1015.5 271.58,-1022.5"/>
</g>
<!-- x35&#45;&gt;n19 -->
<g id="edge11" class="edge">
<title>x35:e&#45;&gt;n19:w</title>
<path fill="none" stroke="black" stroke-width="3" d="M287.58,-1019C375.4,-1019 399.86,-1019 482.85,-1019"/>
<polygon fill="black" stroke="black" stroke-width="3" points="482.99,-1022.5 492.99,-1019 482.99,-1015.5 482.99,-1022.5"/>
</g>
<!-- v36 -->
<g id="node75" class="node">
<title>v36</title>
<ellipse fill="none" stroke="black" cx="108.54" cy="-1073" rx="27" ry="18"/>
<text text-anchor="middle" x="108.54" y="-1069.3" font-family="Times,serif" font-size="14.00">1&#39;1</text>
</g>
<!-- x37 -->
<g id="node76" class="node">
<title>x37</title>
<ellipse fill="black" stroke="black" cx="284.58" cy="-1073" rx="1.8" ry="1.8"/>
</g>
<!-- v36&#45;&gt;x37 -->
<g id="edge53" class="edge">
<title>v36:e&#45;&gt;x37:w</title>
<path fill="none" stroke="black" d="M136.54,-1073C197.48,-1073 215.21,-1073 271.42,-1073"/>
<polygon fill="black" stroke="black" points="271.58,-1076.5 281.58,-1073 271.58,-1069.5 271.58,-1076.5"/>
</g>
<!-- x37&#45;&gt;n20 -->
<g id="edge13" class="edge">
<title>x37:e&#45;&gt;n20:w</title>
<path fill="none" stroke="black" d="M287.58,-1073C360.62,-1073 381.44,-1073 449.58,-1073"/>
<polygon fill="black" stroke="black" points="449.99,-1076.5 459.99,-1073 449.99,-1069.5 449.99,-1076.5"/>
</g>
<!-- v38 -->
<g id="node77" class="node">
<title>v38</title>
<ellipse fill="none" stroke="black" cx="108.54" cy="-1127" rx="38.19" ry="18"/>
<text text-anchor="middle" x="108.54" y="-1123.3" font-family="Times,serif" font-size="14.00">5&#39;00000</text>
</g>
<!-- x39 -->
<g id="node78" class="node">
<title>x39</title>
<ellipse fill="black" stroke="black" cx="284.58" cy="-1127" rx="1.8" ry="1.8"/>
</g>
<!-- v38&#45;&gt;x39 -->
<g id="edge54" class="edge">
<title>v38:e&#45;&gt;x39:w</title>
<path fill="none" stroke="black" stroke-width="3" d="M148.54,-1127C204.09,-1127 220.5,-1127 271.31,-1127"/>
<polygon fill="black" stroke="black" stroke-width="3" points="271.58,-1130.5 281.58,-1127 271.58,-1123.5 271.58,-1130.5"/>
</g>
<!-- x39&#45;&gt;n21 -->
<g id="edge14" class="edge">
<title>x39:e&#45;&gt;n21:w</title>
<path fill="none" stroke="black" stroke-width="3" d="M287.58,-1127C373.17,-1127 397.08,-1127 477.85,-1127"/>
<polygon fill="black" stroke="black" stroke-width="3" points="477.99,-1130.5 487.99,-1127 477.99,-1123.5 477.99,-1130.5"/>
</g>
<!-- v40 -->
<g id="node79" class="node">
<title>v40</title>
<ellipse fill="none" stroke="black" cx="108.54" cy="-1181" rx="38.19" ry="18"/>
<text text-anchor="middle" x="108.54" y="-1177.3" font-family="Times,serif" font-size="14.00">5&#39;00000</text>
</g>
<!-- x41 -->
<g id="node80" class="node">
<title>x41</title>
<ellipse fill="black" stroke="black" cx="284.58" cy="-1181" rx="1.8" ry="1.8"/>
</g>
<!-- v40&#45;&gt;x41 -->
<g id="edge56" class="edge">
<title>v40:e&#45;&gt;x41:w</title>
<path fill="none" stroke="black" stroke-width="3" d="M148.54,-1181C204.09,-1181 220.5,-1181 271.31,-1181"/>
<polygon fill="black" stroke="black" stroke-width="3" points="271.58,-1184.5 281.58,-1181 271.58,-1177.5 271.58,-1184.5"/>
</g>
<!-- x41&#45;&gt;n22 -->
<g id="edge15" class="edge">
<title>x41:e&#45;&gt;n22:w</title>
<path fill="none" stroke="black" stroke-width="3" d="M287.58,-1181C373.17,-1181 397.08,-1181 477.85,-1181"/>
<polygon fill="black" stroke="black" stroke-width="3" points="477.99,-1184.5 487.99,-1181 477.99,-1177.5 477.99,-1184.5"/>
</g>
<!-- v42 -->
<g id="node81" class="node">
<title>v42</title>
<ellipse fill="none" stroke="black" cx="108.54" cy="-1235" rx="27" ry="18"/>
<text text-anchor="middle" x="108.54" y="-1231.3" font-family="Times,serif" font-size="14.00">19</text>
</g>
<!-- x43 -->
<g id="node82" class="node">
<title>x43</title>
<ellipse fill="black" stroke="black" cx="284.58" cy="-1235" rx="1.8" ry="1.8"/>
</g>
<!-- v42&#45;&gt;x43 -->
<g id="edge57" class="edge">
<title>v42:e&#45;&gt;x43:w</title>
<path fill="none" stroke="black" stroke-width="3" d="M136.54,-1235C197.48,-1235 215.21,-1235 271.42,-1235"/>
<polygon fill="black" stroke="black" stroke-width="3" points="271.58,-1238.5 281.58,-1235 271.58,-1231.5 271.58,-1238.5"/>
</g>
<!-- x43&#45;&gt;n23 -->
<g id="edge16" class="edge">
<title>x43:e&#45;&gt;n23:w</title>
<path fill="none" stroke="black" stroke-width="3" d="M287.58,-1235C363.74,-1235 385.34,-1235 456.6,-1235"/>
<polygon fill="black" stroke="black" stroke-width="3" points="456.99,-1238.5 466.99,-1235 456.99,-1231.5 456.99,-1238.5"/>
</g>
<!-- v44 -->
<g id="node83" class="node">
<title>v44</title>
<ellipse fill="none" stroke="black" cx="108.54" cy="-1289" rx="27" ry="18"/>
<text text-anchor="middle" x="108.54" y="-1285.3" font-family="Times,serif" font-size="14.00">0</text>
</g>
<!-- x45 -->
<g id="node84" class="node">
<title>x45</title>
<ellipse fill="black" stroke="black" cx="284.58" cy="-1289" rx="1.8" ry="1.8"/>
</g>
<!-- v44&#45;&gt;x45 -->
<g id="edge58" class="edge">
<title>v44:e&#45;&gt;x45:w</title>
<path fill="none" stroke="black" stroke-width="3" d="M136.54,-1289C197.48,-1289 215.21,-1289 271.42,-1289"/>
<polygon fill="black" stroke="black" stroke-width="3" points="271.58,-1292.5 281.58,-1289 271.58,-1285.5 271.58,-1292.5"/>
</g>
<!-- x45&#45;&gt;n24 -->
<g id="edge17" class="edge">
<title>x45:e&#45;&gt;n24:w</title>
<path fill="none" stroke="black" stroke-width="3" d="M287.58,-1289C370.44,-1289 393.71,-1289 471.68,-1289"/>
<polygon fill="black" stroke="black" stroke-width="3" points="471.99,-1292.5 481.99,-1289 471.99,-1285.5 471.99,-1292.5"/>
</g>
<!-- v46 -->
<g id="node85" class="node">
<title>v46</title>
<ellipse fill="none" stroke="black" cx="108.54" cy="-1343" rx="77.99" ry="18"/>
<text text-anchor="middle" x="108.54" y="-1339.3" font-family="Times,serif" font-size="14.00">13&#39;0000000000000</text>
</g>
<!-- x47 -->
<g id="node86" class="node">
<title>x47</title>
<ellipse fill="black" stroke="black" cx="284.58" cy="-1343" rx="1.8" ry="1.8"/>
</g>
<!-- v46&#45;&gt;x47 -->
<g id="edge59" class="edge">
<title>v46:e&#45;&gt;x47:w</title>
<path fill="none" stroke="black" stroke-width="3" d="M187.54,-1343C225.74,-1343 237.76,-1343 271.46,-1343"/>
<polygon fill="black" stroke="black" stroke-width="3" points="271.58,-1346.5 281.58,-1343 271.58,-1339.5 271.58,-1346.5"/>
</g>
<!-- x47&#45;&gt;n25 -->
<g id="edge18" class="edge">
<title>x47:e&#45;&gt;n25:w</title>
<path fill="none" stroke="black" stroke-width="3" d="M287.58,-1343C358.07,-1343 378.18,-1343 443.95,-1343"/>
<polygon fill="black" stroke="black" stroke-width="3" points="443.99,-1346.5 453.99,-1343 443.99,-1339.5 443.99,-1346.5"/>
</g>
<!-- v48 -->
<g id="node87" class="node">
<title>v48</title>
<ellipse fill="none" stroke="black" cx="108.54" cy="-1397" rx="27" ry="18"/>
<text text-anchor="middle" x="108.54" y="-1393.3" font-family="Times,serif" font-size="14.00">0</text>
</g>
<!-- x49 -->
<g id="node88" class="node">
<title>x49</title>
<ellipse fill="black" stroke="black" cx="284.58" cy="-1397" rx="1.8" ry="1.8"/>
</g>
<!-- v48&#45;&gt;x49 -->
<g id="edge60" class="edge">
<title>v48:e&#45;&gt;x49:w</title>
<path fill="none" stroke="black" stroke-width="3" d="M136.54,-1397C197.48,-1397 215.21,-1397 271.42,-1397"/>
<polygon fill="black" stroke="black" stroke-width="3" points="271.58,-1400.5 281.58,-1397 271.58,-1393.5 271.58,-1400.5"/>
</g>
<!-- x49&#45;&gt;n26 -->
<g id="edge19" class="edge">
<title>x49:e&#45;&gt;n26:w</title>
<path fill="none" stroke="black" stroke-width="3" d="M287.58,-1397C371.72,-1397 395.34,-1397 474.52,-1397"/>
<polygon fill="black" stroke="black" stroke-width="3" points="474.99,-1400.5 484.99,-1397 474.99,-1393.5 474.99,-1400.5"/>
</g>
<!-- v50 -->
<g id="node89" class="node">
<title>v50</title>
<ellipse fill="none" stroke="black" cx="108.54" cy="-1451" rx="73.39" ry="18"/>
<text text-anchor="middle" x="108.54" y="-1447.3" font-family="Times,serif" font-size="14.00">12&#39;000000000000</text>
</g>
<!-- x51 -->
<g id="node90" class="node">
<title>x51</title>
<ellipse fill="black" stroke="black" cx="284.58" cy="-1451" rx="1.8" ry="1.8"/>
</g>
<!-- v50&#45;&gt;x51 -->
<g id="edge61" class="edge">
<title>v50:e&#45;&gt;x51:w</title>
<path fill="none" stroke="black" stroke-width="3" d="M183.54,-1451C223.54,-1451 236,-1451 271.48,-1451"/>
<polygon fill="black" stroke="black" stroke-width="3" points="271.58,-1454.5 281.58,-1451 271.58,-1447.5 271.58,-1454.5"/>
</g>
<!-- x51&#45;&gt;n27 -->
<g id="edge20" class="edge">
<title>x51:e&#45;&gt;n27:w</title>
<path fill="none" stroke="black" stroke-width="3" d="M287.58,-1451C358.92,-1451 379.27,-1451 445.83,-1451"/>
<polygon fill="black" stroke="black" stroke-width="3" points="445.99,-1454.5 455.99,-1451 445.99,-1447.5 445.99,-1454.5"/>
</g>
<!-- v52 -->
<g id="node91" class="node">
<title>v52</title>
<ellipse fill="none" stroke="black" cx="108.54" cy="-1505" rx="27" ry="18"/>
<text text-anchor="middle" x="108.54" y="-1501.3" font-family="Times,serif" font-size="14.00">0</text>
</g>
<!-- x53 -->
<g id="node92" class="node">
<title>x53</title>
<ellipse fill="black" stroke="black" cx="284.58" cy="-1505" rx="1.8" ry="1.8"/>
</g>
<!-- v52&#45;&gt;x53 -->
<g id="edge62" class="edge">
<title>v52:e&#45;&gt;x53:w</title>
<path fill="none" stroke="black" stroke-width="3" d="M136.54,-1505C197.48,-1505 215.21,-1505 271.42,-1505"/>
<polygon fill="black" stroke="black" stroke-width="3" points="271.58,-1508.5 281.58,-1505 271.58,-1501.5 271.58,-1508.5"/>
</g>
<!-- x53&#45;&gt;n28 -->
<g id="edge21" class="edge">
<title>x53:e&#45;&gt;n28:w</title>
<path fill="none" stroke="black" stroke-width="3" d="M287.58,-1505C371.72,-1505 395.34,-1505 474.52,-1505"/>
<polygon fill="black" stroke="black" stroke-width="3" points="474.99,-1508.5 484.99,-1505 474.99,-1501.5 474.99,-1508.5"/>
</g>
<!-- v54 -->
<g id="node93" class="node">
<title>v54</title>
<ellipse fill="none" stroke="black" cx="108.54" cy="-1559" rx="108.58" ry="18"/>
<text text-anchor="middle" x="108.54" y="-1555.3" font-family="Times,serif" font-size="14.00">20&#39;00000000000000000000</text>
</g>
<!-- x55 -->
<g id="node94" class="node">
<title>x55</title>
<ellipse fill="black" stroke="black" cx="284.58" cy="-1559" rx="1.8" ry="1.8"/>
</g>
<!-- v54&#45;&gt;x55 -->
<g id="edge63" class="edge">
<title>v54:e&#45;&gt;x55:w</title>
<path fill="none" stroke="black" stroke-width="3" d="M217.08,-1559C242.05,-1559 250.71,-1559 271.47,-1559"/>
<polygon fill="black" stroke="black" stroke-width="3" points="271.58,-1562.5 281.58,-1559 271.58,-1555.5 271.58,-1562.5"/>
</g>
<!-- x55&#45;&gt;n29 -->
<g id="edge22" class="edge">
<title>x55:e&#45;&gt;n29:w</title>
<path fill="none" stroke="black" stroke-width="3" d="M287.58,-1559C358.92,-1559 379.27,-1559 445.83,-1559"/>
<polygon fill="black" stroke="black" stroke-width="3" points="445.99,-1562.5 455.99,-1559 445.99,-1555.5 445.99,-1562.5"/>
</g>
<!-- v56 -->
<g id="node95" class="node">
<title>v56</title>
<ellipse fill="none" stroke="black" cx="108.54" cy="-1613" rx="27" ry="18"/>
<text text-anchor="middle" x="108.54" y="-1609.3" font-family="Times,serif" font-size="14.00">0</text>
</g>
<!-- x57 -->
<g id="node96" class="node">
<title>x57</title>
<ellipse fill="black" stroke="black" cx="284.58" cy="-1613" rx="1.8" ry="1.8"/>
</g>
<!-- v56&#45;&gt;x57 -->
<g id="edge64" class="edge">
<title>v56:e&#45;&gt;x57:w</title>
<path fill="none" stroke="black" stroke-width="3" d="M136.54,-1613C197.48,-1613 215.21,-1613 271.42,-1613"/>
<polygon fill="black" stroke="black" stroke-width="3" points="271.58,-1616.5 281.58,-1613 271.58,-1609.5 271.58,-1616.5"/>
</g>
<!-- x57&#45;&gt;n30 -->
<g id="edge24" class="edge">
<title>x57:e&#45;&gt;n30:w</title>
<path fill="none" stroke="black" stroke-width="3" d="M287.58,-1613C370.87,-1613 394.25,-1613 472.63,-1613"/>
<polygon fill="black" stroke="black" stroke-width="3" points="472.99,-1616.5 482.99,-1613 472.99,-1609.5 472.99,-1616.5"/>
</g>
<!-- v58 -->
<g id="node97" class="node">
<title>v58</title>
<ellipse fill="none" stroke="black" cx="108.54" cy="-1667" rx="73.39" ry="18"/>
<text text-anchor="middle" x="108.54" y="-1663.3" font-family="Times,serif" font-size="14.00">12&#39;000000000000</text>
</g>
<!-- x59 -->
<g id="node98" class="node">
<title>x59</title>
<ellipse fill="black" stroke="black" cx="284.58" cy="-1667" rx="1.8" ry="1.8"/>
</g>
<!-- v58&#45;&gt;x59 -->
<g id="edge65" class="edge">
<title>v58:e&#45;&gt;x59:w</title>
<path fill="none" stroke="black" stroke-width="3" d="M183.54,-1667C223.54,-1667 236,-1667 271.48,-1667"/>
<polygon fill="black" stroke="black" stroke-width="3" points="271.58,-1670.5 281.58,-1667 271.58,-1663.5 271.58,-1670.5"/>
</g>
<!-- x59&#45;&gt;n31 -->
<g id="edge25" class="edge">
<title>x59:e&#45;&gt;n31:w</title>
<path fill="none" stroke="black" stroke-width="3" d="M287.58,-1667C358.5,-1667 378.72,-1667 444.89,-1667"/>
<polygon fill="black" stroke="black" stroke-width="3" points="444.99,-1670.5 454.99,-1667 444.99,-1663.5 444.99,-1670.5"/>
</g>
<!-- v60 -->
<g id="node99" class="node">
<title>v60</title>
<ellipse fill="none" stroke="black" cx="108.54" cy="-1721" rx="27" ry="18"/>
<text text-anchor="middle" x="108.54" y="-1717.3" font-family="Times,serif" font-size="14.00">19</text>
</g>
<!-- x61 -->
<g id="node100" class="node">
<title>x61</title>
<ellipse fill="black" stroke="black" cx="284.58" cy="-1721" rx="1.8" ry="1.8"/>
</g>
<!-- v60&#45;&gt;x61 -->
<g id="edge67" class="edge">
<title>v60:e&#45;&gt;x61:w</title>
<path fill="none" stroke="black" stroke-width="3" d="M136.54,-1721C197.48,-1721 215.21,-1721 271.42,-1721"/>
<polygon fill="black" stroke="black" stroke-width="3" points="271.58,-1724.5 281.58,-1721 271.58,-1717.5 271.58,-1724.5"/>
</g>
<!-- x61&#45;&gt;n32 -->
<g id="edge26" class="edge">
<title>x61:e&#45;&gt;n32:w</title>
<path fill="none" stroke="black" stroke-width="3" d="M287.58,-1721C376.77,-1721 401.55,-1721 485.96,-1721"/>
<polygon fill="black" stroke="black" stroke-width="3" points="485.99,-1724.5 495.99,-1721 485.99,-1717.5 485.99,-1724.5"/>
</g>
<!-- v62 -->
<g id="node101" class="node">
<title>v62</title>
<ellipse fill="none" stroke="black" cx="108.54" cy="-1775" rx="27" ry="18"/>
<text text-anchor="middle" x="108.54" y="-1771.3" font-family="Times,serif" font-size="14.00">0</text>
</g>
<!-- x63 -->
<g id="node102" class="node">
<title>x63</title>
<ellipse fill="black" stroke="black" cx="284.58" cy="-1775" rx="1.8" ry="1.8"/>
</g>
<!-- v62&#45;&gt;x63 -->
<g id="edge68" class="edge">
<title>v62:e&#45;&gt;x63:w</title>
<path fill="none" stroke="black" stroke-width="3" d="M136.54,-1775C197.48,-1775 215.21,-1775 271.42,-1775"/>
<polygon fill="black" stroke="black" stroke-width="3" points="271.58,-1778.5 281.58,-1775 271.58,-1771.5 271.58,-1778.5"/>
</g>
<!-- x63&#45;&gt;n33 -->
<g id="edge27" class="edge">
<title>x63:e&#45;&gt;n33:w</title>
<path fill="none" stroke="black" stroke-width="3" d="M287.58,-1775C381.67,-1775 407.67,-1775 496.97,-1775"/>
<polygon fill="black" stroke="black" stroke-width="3" points="496.99,-1778.5 506.99,-1775 496.99,-1771.5 496.99,-1778.5"/>
</g>
<!-- v64 -->
<g id="node103" class="node">
<title>v64</title>
<ellipse fill="none" stroke="black" cx="108.54" cy="-1883" rx="27" ry="18"/>
<text text-anchor="middle" x="108.54" y="-1879.3" font-family="Times,serif" font-size="14.00">12&#39;x</text>
</g>
<!-- x65 -->
<g id="node104" class="node">
<title>x65</title>
<ellipse fill="black" stroke="black" cx="284.58" cy="-1883" rx="1.8" ry="1.8"/>
</g>
<!-- v64&#45;&gt;x65 -->
<g id="edge69" class="edge">
<title>v64:e&#45;&gt;x65:w</title>
<path fill="none" stroke="black" stroke-width="3" d="M136.54,-1883C197.48,-1883 215.21,-1883 271.42,-1883"/>
<polygon fill="black" stroke="black" stroke-width="3" points="271.58,-1886.5 281.58,-1883 271.58,-1879.5 271.58,-1886.5"/>
</g>
<!-- x65&#45;&gt;n35 -->
<g id="edge28" class="edge">
<title>x65:e&#45;&gt;n35:w</title>
<path fill="none" stroke="black" stroke-width="3" d="M287.58,-1883C314.69,-1883 323.94,-1883 346.72,-1883"/>
<polygon fill="black" stroke="black" stroke-width="3" points="346.99,-1886.5 356.99,-1883 346.99,-1879.5 346.99,-1886.5"/>
</g>
<!-- v66 -->
<g id="node105" class="node">
<title>v66</title>
<ellipse fill="none" stroke="black" cx="108.54" cy="-1937" rx="27" ry="18"/>
<text text-anchor="middle" x="108.54" y="-1933.3" font-family="Times,serif" font-size="14.00">12&#39;x</text>
</g>
<!-- x67 -->
<g id="node106" class="node">
<title>x67</title>
<ellipse fill="black" stroke="black" cx="284.58" cy="-1937" rx="1.8" ry="1.8"/>
</g>
<!-- v66&#45;&gt;x67 -->
<g id="edge70" class="edge">
<title>v66:e&#45;&gt;x67:w</title>
<path fill="none" stroke="black" stroke-width="3" d="M136.54,-1937C197.48,-1937 215.21,-1937 271.42,-1937"/>
<polygon fill="black" stroke="black" stroke-width="3" points="271.58,-1940.5 281.58,-1937 271.58,-1933.5 271.58,-1940.5"/>
</g>
<!-- x67&#45;&gt;n36 -->
<g id="edge29" class="edge">
<title>x67:e&#45;&gt;n36:w</title>
<path fill="none" stroke="black" stroke-width="3" d="M287.58,-1937C314.69,-1937 323.94,-1937 346.72,-1937"/>
<polygon fill="black" stroke="black" stroke-width="3" points="346.99,-1940.5 356.99,-1937 346.99,-1933.5 346.99,-1940.5"/>
</g>
<!-- v68 -->
<g id="node107" class="node">
<title>v68</title>
<ellipse fill="none" stroke="black" cx="108.54" cy="-1991" rx="27" ry="18"/>
<text text-anchor="middle" x="108.54" y="-1987.3" font-family="Times,serif" font-size="14.00">13&#39;x</text>
</g>
<!-- x69 -->
<g id="node108" class="node">
<title>x69</title>
<ellipse fill="black" stroke="black" cx="284.58" cy="-1991" rx="1.8" ry="1.8"/>
</g>
<!-- v68&#45;&gt;x69 -->
<g id="edge71" class="edge">
<title>v68:e&#45;&gt;x69:w</title>
<path fill="none" stroke="black" stroke-width="3" d="M136.54,-1991C197.48,-1991 215.21,-1991 271.42,-1991"/>
<polygon fill="black" stroke="black" stroke-width="3" points="271.58,-1994.5 281.58,-1991 271.58,-1987.5 271.58,-1994.5"/>
</g>
<!-- x69&#45;&gt;n37 -->
<g id="edge30" class="edge">
<title>x69:e&#45;&gt;n37:w</title>
<path fill="none" stroke="black" stroke-width="3" d="M287.58,-1991C312.55,-1991 321.21,-1991 341.97,-1991"/>
<polygon fill="black" stroke="black" stroke-width="3" points="342.08,-1994.5 352.08,-1991 342.08,-1987.5 342.08,-1994.5"/>
</g>
<!-- v70 -->
<g id="node109" class="node">
<title>v70</title>
<ellipse fill="none" stroke="black" cx="108.54" cy="-2045" rx="27" ry="18"/>
<text text-anchor="middle" x="108.54" y="-2041.3" font-family="Times,serif" font-size="14.00">20&#39;x</text>
</g>
<!-- x71 -->
<g id="node110" class="node">
<title>x71</title>
<ellipse fill="black" stroke="black" cx="284.58" cy="-2045" rx="1.8" ry="1.8"/>
</g>
<!-- v70&#45;&gt;x71 -->
<g id="edge72" class="edge">
<title>v70:e&#45;&gt;x71:w</title>
<path fill="none" stroke="black" stroke-width="3" d="M136.54,-2045C197.48,-2045 215.21,-2045 271.42,-2045"/>
<polygon fill="black" stroke="black" stroke-width="3" points="271.58,-2048.5 281.58,-2045 271.58,-2041.5 271.58,-2048.5"/>
</g>
<!-- x71&#45;&gt;n38 -->
<g id="edge31" class="edge">
<title>x71:e&#45;&gt;n38:w</title>
<path fill="none" stroke="black" stroke-width="3" d="M287.58,-2045C312.55,-2045 321.21,-2045 341.97,-2045"/>
<polygon fill="black" stroke="black" stroke-width="3" points="342.08,-2048.5 352.08,-2045 342.08,-2041.5 342.08,-2048.5"/>
</g>
</g>
</svg>
